<svg xmlns="http://www.w3.org/2000/svg" xmlns:xlink="http://www.w3.org/1999/xlink" width="1920" zoomAndPan="magnify" viewBox="0 0 1440 809.999993" height="1080" preserveAspectRatio="xMidYMid meet" version="1.0"><defs><g/><clipPath id="id1"><path d="M 823 556 L 828 556 L 828 557.328125 L 823 557.328125 Z M 823 556 " clip-rule="nonzero"/></clipPath></defs><path fill="#ffffff" d="M 839.988281 550 C 839.902344 551.828125 840.789062 551.167969 840.957031 551.40625 C 840.746094 548.355469 839.746094 550.085938 839.988281 550 Z M 839.988281 550 " fill-opacity="1" fill-rule="nonzero"/><path fill="#ffffff" d="M 837.972656 519.804688 L 838.339844 520.335938 L 837.453125 515.882812 Z M 837.972656 519.804688 " fill-opacity="1" fill-rule="nonzero"/><path fill="#ffffff" d="M 837.988281 491.546875 C 836.484375 494.21875 838.226562 501.78125 837.691406 506.8125 L 837.367188 507.585938 L 838.578125 509.863281 C 838.367188 503.804688 837.566406 495.863281 837.988281 491.546875 Z M 837.988281 491.546875 " fill-opacity="1" fill-rule="nonzero"/><path fill="#ffffff" d="M 841.253906 476.488281 C 840.664062 477.417969 840.746094 473.226562 841.070312 480.003906 C 841.070312 479.667969 841.167969 479.566406 841.226562 479.371094 C 841.210938 478.753906 841.210938 477.921875 841.253906 476.488281 Z M 841.253906 476.488281 " fill-opacity="1" fill-rule="nonzero"/><path fill="#ffffff" d="M 841.210938 479.371094 C 841.210938 482.351562 841.703125 477.429688 841.210938 479.371094 Z M 841.210938 479.371094 " fill-opacity="1" fill-rule="nonzero"/><path fill="#ffffff" d="M 840.875 465.621094 L 841.394531 469.542969 C 841.746094 468.730469 841.816406 465.242188 842.070312 466.535156 C 841.789062 462.515625 841.449219 463.34375 840.875 465.621094 Z M 840.875 465.621094 " fill-opacity="1" fill-rule="nonzero"/><path fill="#ffffff" d="M 839.777344 461.910156 L 840 463.933594 C 840.1875 463.230469 840.113281 462.554688 839.777344 461.910156 Z M 839.777344 461.910156 " fill-opacity="1" fill-rule="nonzero"/><path fill="#ffffff" d="M 840.464844 468.222656 L 840 463.921875 C 839.761719 464.484375 839.269531 464.554688 840.167969 465.902344 C 839.71875 465.566406 840.183594 466.421875 840.464844 468.222656 Z M 840.464844 468.222656 " fill-opacity="1" fill-rule="nonzero"/><path fill="#ffffff" d="M 840.183594 470.683594 C 839.859375 472.875 839.648438 475.714844 839.128906 471.792969 C 839.394531 479.285156 840.449219 478.191406 840.183594 470.683594 Z M 840.183594 470.683594 " fill-opacity="1" fill-rule="nonzero"/><path fill="#ffffff" d="M 836.425781 490.113281 L 835.988281 493.050781 L 836.496094 495.59375 C 836.242188 494.316406 836.90625 489.929688 836.425781 490.113281 Z M 836.425781 490.113281 " fill-opacity="1" fill-rule="nonzero"/><path fill="#ffffff" d="M 841.589844 441.214844 C 841.265625 440.976562 840.734375 442.539062 840.324219 442.832031 L 840.691406 445.730469 C 840.984375 444.238281 841.183594 441.414062 841.589844 441.214844 Z M 841.589844 441.214844 " fill-opacity="1" fill-rule="nonzero"/><path fill="#ffffff" d="M 840.394531 442.832031 L 839.847656 438.503906 C 839.777344 442.371094 840.042969 443.074219 840.394531 442.832031 Z M 840.394531 442.832031 " fill-opacity="1" fill-rule="nonzero"/><path fill="#ffffff" d="M 838.101562 461.207031 L 839.269531 468.320312 L 838.085938 459.84375 Z M 838.101562 461.207031 " fill-opacity="1" fill-rule="nonzero"/><path fill="#ffffff" d="M 841.703125 424.683594 L 842.433594 427.128906 L 841.324219 422.757812 Z M 841.703125 424.683594 " fill-opacity="1" fill-rule="nonzero"/><path fill="#ffffff" d="M 841.589844 413.703125 C 842.210938 415.519531 842.632812 411.214844 843 413.128906 C 842.855469 410.488281 842.484375 407.882812 841.886719 405.3125 C 842.160156 408.121094 842.0625 410.917969 841.589844 413.703125 Z M 841.589844 413.703125 " fill-opacity="1" fill-rule="nonzero"/><path fill="#ffffff" d="M 841.183594 401.472656 C 841.324219 402.683594 841.589844 403.949219 841.871094 405.324219 C 841.742188 404.023438 841.511719 402.738281 841.183594 401.472656 Z M 841.183594 401.472656 " fill-opacity="1" fill-rule="nonzero"/><path fill="#ffffff" d="M 840 431.121094 C 840.621094 430.074219 840.925781 428.9375 840.914062 427.71875 L 840.015625 429.421875 Z M 840 431.121094 " fill-opacity="1" fill-rule="nonzero"/><path fill="#ffffff" d="M 840 431.542969 L 840 431.109375 C 839.878906 431.253906 839.878906 431.398438 840 431.542969 Z M 840 431.542969 " fill-opacity="1" fill-rule="nonzero"/><path fill="#ffffff" d="M 838.917969 449.863281 C 838.410156 447.316406 837.875 442.019531 837.101562 447.148438 C 837.722656 448.976562 838.15625 446.039062 838.917969 449.863281 Z M 838.917969 449.863281 " fill-opacity="1" fill-rule="nonzero"/><path fill="#ffffff" d="M 838.875 433.667969 L 838.664062 438.265625 C 838.902344 438.179688 839.253906 437.351562 839.492188 438.601562 Z M 838.875 433.667969 " fill-opacity="1" fill-rule="nonzero"/><path fill="#ffffff" d="M 838.578125 431.417969 L 838.875 433.667969 L 838.945312 431.964844 Z M 838.578125 431.417969 " fill-opacity="1" fill-rule="nonzero"/><path fill="#ffffff" d="M 840.339844 409.359375 C 839.992188 407.167969 839.828125 404.960938 839.847656 402.738281 C 839.664062 405.367188 839.578125 408.09375 839.578125 410.667969 C 839.859375 411.035156 840.367188 412.171875 840.339844 409.359375 Z M 840.339844 409.359375 " fill-opacity="1" fill-rule="nonzero"/><path fill="#ffffff" d="M 840.085938 419.128906 L 840.085938 418.695312 C 839.957031 419.019531 839.929688 419.1875 840.085938 419.128906 Z M 840.085938 419.128906 " fill-opacity="1" fill-rule="nonzero"/><path fill="#ffffff" d="M 839.859375 378.570312 L 839.691406 378.964844 L 839.847656 379.050781 Z M 839.859375 378.570312 " fill-opacity="1" fill-rule="nonzero"/><path fill="#ffffff" d="M 839.410156 411.117188 C 839.261719 412.542969 839.371094 413.949219 839.734375 415.335938 C 839.648438 413.859375 839.578125 412.285156 839.578125 410.613281 C 839.453125 410.511719 839.367188 410.484375 839.410156 411.117188 Z M 839.410156 411.117188 " fill-opacity="1" fill-rule="nonzero"/><path fill="#ffffff" d="M 840.761719 394.738281 C 840.578125 395.765625 840.410156 396.933594 840.269531 398.167969 C 840.648438 397.058594 840.8125 395.914062 840.761719 394.738281 Z M 840.761719 394.738281 " fill-opacity="1" fill-rule="nonzero"/><path fill="#ffffff" d="M 840.28125 418.019531 L 840.28125 418.316406 C 840.519531 417.613281 840.421875 417.753906 840.28125 418.019531 Z M 840.28125 418.019531 " fill-opacity="1" fill-rule="nonzero"/><path fill="#ffffff" d="M 840.28125 418.019531 C 840.152344 417.136719 839.96875 416.265625 839.734375 415.40625 C 839.804688 416.613281 839.902344 417.726562 840.027344 418.695312 C 840.089844 418.460938 840.175781 418.238281 840.28125 418.019531 Z M 840.28125 418.019531 " fill-opacity="1" fill-rule="nonzero"/><path fill="#ffffff" d="M 834.0625 371.21875 C 834.890625 371.570312 835.667969 376.773438 834.78125 381.257812 C 835.414062 385.671875 838.15625 382.789062 839.691406 378.921875 C 839.324219 378.78125 838.988281 378.78125 838.496094 374.242188 C 838.042969 375.832031 837.425781 384.320312 836.664062 380.5 C 836.230469 374.480469 836.960938 375.5625 837.398438 372.640625 C 836.355469 375.128906 835.878906 364.976562 834.34375 366.285156 L 834.878906 371.570312 C 834.667969 371.699219 834.289062 369.8125 834.0625 371.21875 Z M 834.0625 371.21875 " fill-opacity="1" fill-rule="nonzero"/><path fill="#ffffff" d="M 839.605469 387.613281 L 839.707031 389.480469 C 839.894531 387.292969 840.273438 385.136719 840.84375 383.015625 C 840.4375 379.90625 840.128906 379.261719 839.847656 379.035156 L 839.734375 388.246094 Z M 839.605469 387.613281 " fill-opacity="1" fill-rule="nonzero"/><path fill="#ffffff" d="M 839.71875 397.929688 C 838.804688 396.523438 838.425781 391.984375 837.441406 394.726562 C 837.441406 400.207031 838.199219 398.578125 838.59375 401.851562 C 838.367188 392.996094 839.101562 404.398438 839.621094 398 C 839.777344 399.746094 839.816406 401.304688 839.859375 402.78125 C 839.972656 401.191406 840.113281 399.644531 840.28125 398.199219 L 840.28125 398.394531 C 840.167969 398.773438 840.097656 398.902344 840.167969 398.464844 C 840.164062 398.402344 840.164062 398.34375 840.167969 398.28125 C 840.023438 398.179688 839.910156 398.050781 839.832031 397.886719 C 840.015625 395.328125 840.070312 397.480469 840.167969 398.28125 C 840.167969 398.28125 840.253906 398.378906 840.308594 398.394531 L 839.816406 389.523438 C 839.578125 391.367188 839.605469 393.714844 839.71875 397.929688 Z M 839.71875 397.929688 " fill-opacity="1" fill-rule="nonzero"/><path fill="#ffffff" d="M 835.144531 442.410156 C 835.230469 442.128906 835.285156 442.144531 835.355469 442.128906 C 835.246094 441.511719 835.171875 441.34375 835.144531 442.410156 Z M 835.144531 442.410156 " fill-opacity="1" fill-rule="nonzero"/><path fill="#ffffff" d="M 835.695312 438.699219 C 836.042969 439.765625 836.175781 440.859375 836.089844 441.976562 C 835.820312 443.789062 835.652344 441.976562 835.355469 442.058594 C 835.597656 443.324219 836.003906 446.488281 836.453125 442.523438 L 836.328125 441.890625 C 836.636719 438.320312 837.734375 433.722656 837.902344 434.355469 C 836.878906 435.65625 836.140625 437.105469 835.695312 438.699219 Z M 835.695312 438.699219 " fill-opacity="1" fill-rule="nonzero"/><path fill="#ffffff" d="M 837.480469 418.078125 L 837.03125 410.683594 L 836.242188 414.449219 L 836.722656 414.253906 C 836.523438 418.457031 837.117188 417.613281 837.480469 418.078125 Z M 837.480469 418.078125 " fill-opacity="1" fill-rule="nonzero"/><path fill="#ffffff" d="M 840.308594 377.730469 L 841.265625 378.699219 L 839.917969 374.4375 Z M 840.308594 377.730469 " fill-opacity="1" fill-rule="nonzero"/><path fill="#ffffff" d="M 840.199219 368.125 L 841.027344 368.476562 L 840.519531 365.949219 Z M 840.199219 368.125 " fill-opacity="1" fill-rule="nonzero"/><path fill="#ffffff" d="M 529.683594 347.054688 L 529.925781 349.21875 C 529.839844 348.207031 529.769531 347.546875 529.683594 347.054688 Z M 529.683594 347.054688 " fill-opacity="1" fill-rule="nonzero"/><path fill="#ffffff" d="M 529.742188 331.335938 L 529.332031 330.957031 C 529.558594 331.671875 529.726562 331.984375 529.742188 331.335938 Z M 529.742188 331.335938 " fill-opacity="1" fill-rule="nonzero"/><path fill="#ffffff" d="M 725.433594 236.34375 C 722.269531 235.570312 718.738281 234.359375 719.117188 235.289062 L 720.085938 236.203125 C 721.875 236.058594 723.65625 236.105469 725.433594 236.34375 Z M 725.433594 236.34375 " fill-opacity="1" fill-rule="nonzero"/><path fill="#ffffff" d="M 563.769531 241.8125 L 564.699219 242.09375 L 566.835938 241.222656 Z M 563.769531 241.8125 " fill-opacity="1" fill-rule="nonzero"/><path fill="#ffffff" d="M 561.546875 245.59375 L 557.324219 245.003906 C 558.71875 245.277344 560.128906 245.476562 561.546875 245.59375 Z M 561.546875 245.59375 " fill-opacity="1" fill-rule="nonzero"/><path fill="#ffffff" d="M 530.585938 432.90625 L 531.515625 435.4375 C 531.585938 431.472656 531.105469 433.21875 530.585938 432.90625 Z M 530.585938 432.90625 " fill-opacity="1" fill-rule="nonzero"/><path fill="#ffffff" d="M 839.859375 269.773438 C 840.167969 267.515625 840.347656 265.246094 840.410156 262.96875 C 839.886719 266.257812 839.101562 268.917969 839.859375 269.773438 Z M 839.859375 269.773438 " fill-opacity="1" fill-rule="nonzero"/><path fill="#ffffff" d="M 519.960938 340.867188 C 520.128906 342.1875 520.3125 342.765625 520.523438 342.722656 C 520.367188 341.359375 520.1875 340.585938 519.960938 340.867188 Z M 519.960938 340.867188 " fill-opacity="1" fill-rule="nonzero"/><path fill="#ffffff" d="M 840.410156 255.082031 C 840.308594 255.5625 840.269531 256.039062 840.199219 256.488281 C 840.386719 258.632812 840.460938 260.777344 840.421875 262.925781 C 840.933594 260.3125 840.925781 257.695312 840.410156 255.082031 Z M 840.410156 255.082031 " fill-opacity="1" fill-rule="nonzero"/><path fill="#ffffff" d="M 717.652344 546.234375 C 717.878906 546.234375 718.160156 546.234375 718.355469 546.34375 C 718.554688 546.457031 718.105469 546.21875 717.652344 546.234375 Z M 717.652344 546.234375 " fill-opacity="1" fill-rule="nonzero"/><path fill="#ffffff" d="M 808.449219 555.46875 C 807.550781 555.46875 806.101562 555.46875 804.71875 555.46875 C 805.964844 555.558594 807.207031 555.558594 808.449219 555.46875 Z M 808.449219 555.46875 " fill-opacity="1" fill-rule="nonzero"/><path fill="#ffffff" d="M 840.589844 329.496094 C 840.589844 331.53125 840.691406 329.816406 840.589844 329.496094 Z M 840.589844 329.496094 " fill-opacity="1" fill-rule="nonzero"/><path fill="#ffffff" d="M 836.976562 339.390625 C 836.875 338.957031 836.734375 338.632812 836.523438 338.574219 C 836.769531 338.796875 836.921875 339.066406 836.976562 339.390625 Z M 836.976562 339.390625 " fill-opacity="1" fill-rule="nonzero"/><path fill="#ffffff" d="M 828.023438 241.726562 L 827.855469 241.726562 C 828.40625 241.882812 828.304688 241.882812 828.023438 241.726562 Z M 828.023438 241.726562 " fill-opacity="1" fill-rule="nonzero"/><path fill="#ffffff" d="M 840.183594 332.542969 C 840.296875 331.785156 840.394531 330.898438 840.449219 329.945312 C 840.378906 330.367188 840.28125 331.152344 840.183594 332.542969 Z M 840.183594 332.542969 " fill-opacity="1" fill-rule="nonzero"/><path fill="#ffffff" d="M 840.605469 332.136719 L 840.519531 333.921875 C 840.675781 334.175781 840.773438 333.949219 840.605469 332.136719 Z M 840.605469 332.136719 " fill-opacity="1" fill-rule="nonzero"/><path fill="#ffffff" d="M 840.550781 326.65625 C 840.550781 327.820312 840.550781 328.902344 840.449219 329.957031 C 840.449219 329.566406 840.5625 329.394531 840.589844 329.496094 Z M 840.550781 326.65625 " fill-opacity="1" fill-rule="nonzero"/><path fill="#ffffff" d="M 550.667969 548.679688 L 551.105469 548.765625 C 553.101562 548.355469 552.257812 548.453125 550.667969 548.679688 Z M 550.667969 548.679688 " fill-opacity="1" fill-rule="nonzero"/><path fill="#ffffff" d="M 665.0625 246.519531 C 667.410156 245.609375 669.824219 245.355469 672.3125 245.761719 L 669.90625 243.132812 Z M 665.0625 246.519531 " fill-opacity="1" fill-rule="nonzero"/><path fill="#ffffff" d="M 529.953125 384.6875 L 530.769531 379.554688 C 532.175781 385.757812 531.65625 390.242188 532.808594 385.417969 C 529.996094 384.6875 532.515625 365.457031 529.65625 364.738281 L 530.261719 361.351562 C 530.261719 362.320312 530.402344 362.476562 530.375 363.429688 C 531.78125 356.851562 528.304688 358.539062 528.714844 350.046875 C 528.9375 347.09375 529.347656 345.027344 529.683594 347.039062 L 528.980469 340.445312 C 528.980469 338.535156 529.53125 339.039062 529.472656 340.910156 L 529.179688 330.871094 L 529.261719 330.941406 C 528.8125 329.535156 528.121094 326.261719 527.855469 324.671875 C 528.265625 322.113281 528.164062 325.953125 528.515625 325.304688 L 527.828125 319.679688 C 528.574219 317.417969 529.234375 322.027344 529.234375 325.867188 C 532.050781 320.664062 528.515625 321.257812 530.191406 310.039062 L 530.558594 315.296875 C 532.191406 311.90625 531.597656 307.800781 532.613281 301.871094 C 532.078125 303.273438 530.050781 313.761719 529.347656 307.71875 C 529.644531 305.304688 529.558594 302.90625 529.09375 300.519531 C 530.105469 300.519531 529.867188 297.3125 529.8125 293.320312 L 531.21875 293.589844 C 530.824219 289.285156 530.136719 289.625 529.53125 287.09375 C 529.65625 282.300781 530.710938 281.300781 531.585938 280.175781 C 531.796875 272.5 529.910156 285.476562 529.65625 276.394531 C 530.175781 270.011719 529.65625 265.527344 528.8125 257.878906 C 529.277344 253.410156 529.644531 258.667969 530.023438 257.066406 L 528.839844 253.128906 C 528.839844 252.160156 529.191406 252.46875 529.363281 252.636719 C 529.148438 250.964844 528.8125 250.894531 528.488281 250.585938 C 528.242188 250.339844 528.082031 250.050781 528.011719 249.710938 C 527.796875 249.179688 527.675781 248.625 527.644531 248.054688 C 526.996094 247.476562 527.335938 245.929688 527.769531 244.679688 C 529.179688 244.960938 530.488281 245.285156 531.585938 245.425781 L 533.539062 245.425781 C 534.492188 245.375 535.429688 245.234375 536.355469 245.003906 C 537.960938 245.382812 535.582031 245.832031 536.074219 246.410156 C 541.113281 245.953125 546.105469 245.191406 551.046875 244.117188 L 557.296875 245.003906 C 552.707031 243.992188 558.5625 242.796875 563.699219 241.8125 C 562.066406 241.320312 560.6875 240.898438 559.746094 240.6875 L 567.933594 239.96875 C 568.917969 240.195312 568.101562 240.660156 566.753906 241.222656 L 568.257812 240.898438 C 571.183594 241.390625 569.664062 242.175781 567.570312 242.921875 L 564.613281 242.09375 C 562.585938 242.910156 560.703125 243.820312 561.125 244.609375 C 562.007812 244.40625 562.902344 244.285156 563.8125 244.242188 C 563.277344 244.46875 562.9375 244.664062 563.191406 244.804688 C 564.046875 244.785156 564.875 244.617188 565.667969 244.300781 L 567.527344 245.804688 L 567.976562 245.214844 L 578.699219 246.15625 C 586.371094 244.636719 593.039062 242.417969 605.214844 241.796875 C 602.1875 242.894531 604.566406 243.597656 604.398438 244.90625 C 601.074219 243.5 594.96875 245.496094 588.664062 245.214844 C 591.957031 245.355469 591.226562 245.988281 590.394531 246.199219 L 601.652344 244.933594 C 601.398438 246 604.042969 245.734375 606.984375 246.167969 C 604.761719 244.0625 615.429688 244.765625 619.945312 244.117188 C 620.226562 244.820312 619.128906 245.523438 613.542969 245.382812 C 619.707031 246.972656 621.507812 242.910156 627.617188 244.257812 C 626.210938 244.257812 625.519531 244.160156 624.984375 244.523438 C 628.164062 243.890625 635.960938 244.398438 634.117188 245.015625 L 632.710938 245.015625 C 641.757812 245.269531 660.265625 245.015625 661.617188 243.246094 C 661.230469 244.21875 660.652344 245.0625 659.886719 245.777344 L 676.039062 239.746094 C 674.632812 241.292969 680.078125 244.960938 672.578125 245.816406 C 675.703125 246.207031 678.828125 246.207031 681.949219 245.816406 C 680.542969 245.59375 678.292969 243.597656 680.289062 243.457031 C 685.808594 245.171875 684.117188 244.371094 690.914062 245.832031 C 688.707031 245.496094 691.15625 243.019531 694.644531 243.160156 C 694.09375 243.527344 694.941406 245.550781 693.660156 245.804688 L 702.371094 243.289062 C 700.203125 243.710938 701.992188 245.296875 703.933594 245.972656 C 703.03125 245.507812 711.433594 245.972656 713.785156 245.777344 L 710.109375 245.226562 C 719.960938 245.578125 719.777344 241.894531 729.488281 242.023438 C 728.304688 242.515625 726.589844 245.03125 731.527344 245.339844 C 733.792969 244.132812 741.546875 239.492188 750.148438 238.5625 L 751.792969 239.253906 L 758.378906 238.464844 C 751.230469 241.332031 743.929688 243.71875 736.46875 245.636719 C 740.128906 246.183594 737.480469 246.449219 742.96875 246.394531 C 744.910156 247.042969 739.988281 247.378906 738.367188 247.421875 L 751.144531 247.84375 C 750.582031 246.4375 760.914062 246.4375 760.421875 245.242188 L 746.542969 246.648438 C 745.980469 245.242188 754.566406 242.628906 763.613281 242.878906 C 765.921875 243.441406 761.898438 245.410156 762.082031 245.875 C 765.191406 245.269531 768.332031 245.074219 771.496094 245.285156 L 767.652344 246.042969 C 772.691406 246.578125 775.871094 244.160156 781.921875 245.523438 C 784.003906 245.609375 788.15625 247.351562 788.523438 246.507812 C 785.117188 244.890625 784.441406 239.886719 786.722656 238.675781 C 787.453125 238.789062 797.699219 240.222656 800.078125 241.023438 C 803.523438 242.289062 794.910156 244.046875 797.839844 245.144531 C 797.964844 244.75 799.867188 244.273438 800.652344 244.132812 C 802.847656 244.46875 799.738281 245.328125 804.507812 245.15625 C 805.3125 243.75 814.207031 245.285156 806.761719 243.949219 C 811.417969 243.539062 811.714844 244.242188 817.1875 244.1875 C 815.445312 243.257812 822.101562 241.023438 826.785156 240.617188 C 826.503906 240.980469 827.601562 241.460938 828.039062 241.671875 C 830.53125 241.671875 832.65625 241.769531 834.527344 241.867188 L 834.132812 249.640625 C 834.003906 252.300781 833.921875 255.070312 833.921875 258.34375 C 833.570312 259.160156 833.148438 263.460938 832.515625 261.632812 C 832.996094 263.335938 833.253906 265.070312 833.289062 266.835938 C 832.050781 272.148438 833.089844 260.707031 831.597656 264.769531 C 832.429688 265.121094 832.753906 271.867188 833.273438 275.789062 C 834.570312 274.582031 833.527344 266.75 833.007812 262.828125 C 834.792969 262.828125 836.652344 269.632812 837.480469 278.941406 C 837.917969 286.335938 836.328125 282.144531 836.582031 283.4375 C 836.269531 297.34375 839.691406 295.277344 838.410156 306.816406 C 837.269531 311.402344 836.160156 307.027344 835.328125 308.039062 C 834.890625 302.011719 836.046875 298.789062 836.003906 294.699219 L 835.46875 299.734375 C 834.996094 297.039062 834.882812 294.332031 835.132812 291.605469 C 834.117188 295.445312 834.933594 315.085938 833.992188 325.8125 C 834.371094 327.707031 834.765625 331 835.214844 329.453125 L 835.0625 326.0625 C 835.976562 322.941406 836.328125 332.445312 836.75 328.160156 C 837.78125 333.464844 838.160156 338.816406 837.890625 344.214844 L 836.59375 345.421875 C 836.976562 345.28125 837.367188 341.203125 836.976562 339.433594 C 837.550781 342.105469 835.230469 349.273438 836.976562 352.183594 L 837.875 347.699219 C 838.523438 352.269531 839.902344 357.921875 839.492188 363.601562 C 840.773438 361.011719 839.351562 362.292969 840.902344 358.257812 C 839.042969 361.757812 840.984375 343.734375 839.03125 349.359375 C 840.761719 345.226562 839.761719 342.1875 841.238281 336.777344 C 840.816406 336.945312 840.421875 338.6875 840.632812 333.964844 C 840.476562 333.628906 840.347656 333.28125 840.253906 332.925781 L 840.253906 332.601562 L 840.253906 332.867188 C 840.253906 332.65625 840.183594 332.644531 840.253906 332.964844 C 840.164062 333.8125 839.949219 334.621094 839.605469 335.398438 C 838.621094 333.035156 838.664062 325.460938 838.199219 322.886719 C 838.394531 320.074219 838.691406 324.066406 839.140625 322.519531 L 838.382812 318.699219 C 839.324219 318.316406 839.957031 311.191406 840.507812 317.839844 L 840.507812 311.835938 C 841.078125 308.054688 841.191406 304.257812 840.84375 300.449219 C 841.054688 297.636719 839.789062 293.308594 840.535156 295.769531 L 839.945312 286.363281 L 840.183594 286.277344 C 840.296875 277 838.609375 267.171875 840.324219 256.574219 C 839.890625 251.722656 839.804688 246.871094 840.058594 242.007812 L 840.875 239.773438 C 840.875 238.648438 840.875 237.300781 840.875 235.78125 C 837.3125 235.78125 833.089844 235.570312 829.304688 235.484375 L 825.308594 235.484375 C 824.691406 235.480469 824.089844 235.582031 823.507812 235.792969 C 819.171875 233.585938 804.015625 235.316406 796.964844 234.921875 L 796.699219 235.992188 C 791.84375 235.992188 787.171875 236.230469 781.148438 236.667969 L 781.515625 237.609375 C 776.308594 238.382812 768.144531 236.933594 759.914062 237.03125 C 761.289062 236.722656 762.664062 236.722656 764.035156 237.03125 C 754.1875 234.894531 743.292969 238.59375 734.386719 237.03125 C 732.589844 237.328125 730.792969 237.328125 728.996094 237.03125 C 729.179688 237.046875 729.363281 237.046875 729.542969 237.03125 L 728.628906 237.03125 C 727.644531 236.863281 726.644531 236.679688 725.546875 236.527344 C 726.402344 236.75 727.261719 236.917969 728.136719 237.03125 C 726.421875 237.03125 723.832031 237.171875 721.285156 237.410156 L 720.199219 236.398438 L 719.609375 236.398438 C 717.105469 236.019531 717.597656 236.878906 718.933594 237.648438 C 717.800781 237.785156 716.679688 237.992188 715.570312 238.269531 C 713.542969 236.625 708.886719 238.816406 706.113281 237.074219 C 704.398438 237.929688 693.308594 237.71875 691.957031 239.507812 C 691.871094 239.265625 691.113281 239.15625 692.492188 239.140625 C 689.746094 238.816406 687.007812 238.847656 684.273438 239.238281 L 683.0625 237.945312 L 676.855469 239.675781 C 673.085938 238.886719 671.523438 238.4375 675.265625 237.441406 C 666.230469 238.972656 667.933594 238.015625 660.265625 239.535156 L 660.644531 238.703125 C 657.832031 238.703125 653.511719 239.859375 651.847656 239.167969 C 645.714844 237.582031 621.464844 238.945312 605.707031 237.480469 C 608.757812 239.941406 598.375 236.386719 597.753906 238.28125 C 596.839844 237.707031 594.644531 237.371094 597.191406 236.878906 C 589.140625 237.453125 585.101562 235.949219 579.542969 237.566406 C 578.628906 236.976562 581.261719 236.707031 580.445312 236.371094 C 579.324219 236.664062 578.195312 236.71875 577.054688 236.527344 C 576.238281 236.175781 578.234375 236.035156 579.503906 235.78125 C 571.285156 235.878906 570.453125 237.664062 569.847656 239.351562 C 565.625 238.550781 563.601562 238.664062 560.601562 239.773438 C 559.195312 239.226562 556.734375 238.648438 561.839844 238.453125 C 559.027344 238.367188 544.292969 237.648438 543.996094 239 C 542.40625 238.75 540.816406 238.75 539.226562 239 L 532.371094 238.886719 C 530.023438 238.886719 527.671875 238.886719 523.449219 238.886719 L 525.957031 239.113281 C 525.066406 239.703125 524.085938 239.980469 523.015625 239.941406 C 523.015625 241.121094 523.015625 242.304688 522.859375 243.765625 C 522.703125 245.226562 522.675781 246.972656 522.734375 249.039062 L 522.5625 248.839844 L 522.140625 252.539062 C 522.140625 253.496094 522.042969 254.238281 522.03125 254.84375 C 522.007812 255.679688 522.046875 256.515625 522.140625 257.347656 C 522.269531 258.582031 522.367188 259.804688 521.691406 265.570312 L 522.703125 264.9375 C 524.886719 266.007812 521.425781 275.160156 522.253906 281.808594 L 522.832031 279.390625 C 523.578125 283.046875 519.875 289.609375 519.59375 293.28125 C 519.410156 294.082031 519.285156 292.015625 519.144531 290.902344 C 517.863281 300.519531 520.46875 292.15625 520.777344 299.339844 C 520.058594 300.660156 518.960938 297.636719 518.820312 302.460938 C 518.242188 304.863281 521.144531 316.449219 519.777344 323.011719 C 520.328125 321.605469 520.875 320.132812 521.296875 323.449219 C 521.496094 328.550781 519.214844 337.226562 520.945312 341.835938 C 520.792969 342.484375 520.652344 342.738281 520.507812 342.75 C 520.960938 346.644531 521.253906 355.402344 522.199219 357.765625 C 518.707031 361.378906 523.914062 381.972656 520.734375 381.890625 L 520.902344 393.882812 L 520.582031 393.574219 C 520.367188 401.234375 521.144531 403.949219 521.917969 406.632812 C 521.691406 408.402344 521.394531 407.109375 521.226562 406.96875 C 520.582031 418.21875 520.722656 419.285156 522.324219 428.664062 L 521.285156 429.632812 C 521.890625 432.175781 519.636719 445.8125 520.863281 456.808594 C 520.75 456.695312 520.539062 456.46875 520.398438 455.597656 C 521.621094 467.957031 517.5 485.121094 521.3125 489.703125 L 522.253906 497.859375 C 522.550781 487.3125 523.902344 499.433594 524.535156 495.046875 C 524.757812 499.265625 523.378906 505.773438 523.128906 500.667969 L 523.324219 499.867188 C 521.339844 498 522.621094 512.972656 521.269531 512.691406 C 521.269531 519.269531 521.269531 525.792969 521.074219 532.246094 L 520.832031 541.875 L 520.582031 555.511719 L 535.652344 555.765625 C 539.273438 555.832031 542.867188 555.878906 546.429688 555.90625 L 544.195312 554.359375 L 550.976562 554.445312 C 552.765625 554.808594 553.371094 555.652344 548.527344 555.582031 C 551.074219 556.453125 556.648438 554.851562 556.789062 554.511719 C 566.273438 555.132812 553.085938 556.3125 555.988281 556.355469 L 559.941406 556.242188 L 559.054688 556.058594 C 562.25 555.425781 562.542969 554.765625 568.355469 554.835938 C 572.042969 555.144531 570.242188 555.792969 571.691406 555.847656 C 571.691406 555.960938 572.171875 556.003906 573.914062 555.847656 L 582.472656 555.976562 L 579.050781 554.753906 C 582.835938 554.148438 587.101562 554.753906 583.148438 553.429688 C 588.945312 555.554688 615.050781 554.191406 618.609375 554.835938 C 624.265625 554.058594 629.949219 553.804688 635.652344 554.078125 C 634.035156 553.824219 633.078125 552.460938 638.675781 552.671875 C 636.636719 555.484375 648.9375 553.894531 653.453125 555.933594 C 649.414062 554.527344 669.371094 555.597656 663.023438 553.683594 C 667.695312 553.910156 663.304688 554.738281 666.851562 555.414062 C 677.96875 554.316406 691.367188 556.128906 705.101562 555.75 C 705.3125 555.386719 703.019531 554.808594 705.957031 554.261719 L 713.21875 556.117188 C 715.9375 555.933594 715.726562 553.980469 720.679688 555.257812 C 719.976562 554.949219 718.933594 554.472656 720.75 554.359375 C 747.683594 556.171875 775.773438 552.882812 803.128906 556.269531 C 799.429688 555.554688 801.890625 555.484375 804.71875 555.457031 C 802.878906 555.285156 804.71875 554.542969 804.398438 554.050781 L 815.851562 555.457031 C 817.933594 554.050781 828.125 555.355469 829.320312 554.050781 L 825.6875 554.289062 C 830.515625 552.714844 818.949219 550.789062 819.652344 548.765625 C 814.246094 550.550781 805.410156 546.105469 796.558594 548.679688 C 794.601562 548.273438 798.234375 548.03125 797.179688 547.554688 C 794.925781 548.425781 792.222656 548.59375 787.199219 548.214844 L 787.761719 548.003906 C 773.691406 548.214844 767.597656 547.359375 751.738281 546.796875 L 752.90625 547.792969 C 750.972656 547.734375 749.066406 547.5 747.175781 547.089844 C 743.265625 548.609375 756.746094 547.175781 753.1875 548.847656 C 748.667969 546.808594 729.152344 548.847656 726.097656 546.515625 C 720.847656 546.515625 727.628906 547.667969 722.394531 547.652344 L 720.988281 547.035156 L 719.664062 547.835938 C 716.230469 547.710938 714.5 546.921875 714.359375 546.429688 C 715.191406 546.429688 716.722656 546.277344 717.625 546.234375 C 713.164062 545.503906 705.058594 546.488281 703.550781 546.234375 L 708.589844 546.613281 C 694.277344 547.203125 676.816406 546.375 662.980469 547.652344 L 664.035156 548.132812 C 653.480469 549.003906 655.59375 547.609375 643.996094 548.019531 L 644.417969 547.90625 C 641.578125 548.414062 638.71875 548.632812 635.835938 548.554688 C 638.761719 548.003906 630.332031 547.484375 634.160156 546.867188 C 622.71875 547.808594 628.53125 547.597656 620.933594 549.355469 L 619.1875 548.566406 C 616.402344 549.515625 613.542969 549.941406 610.601562 549.847656 C 615.34375 549.171875 606.902344 548.652344 612.222656 547.765625 C 600.078125 546.050781 594.179688 549.496094 588.605469 546.992188 C 582.976562 549.15625 599.121094 548.1875 595.996094 548.652344 C 598.613281 549.355469 591.394531 550.269531 587.550781 550.058594 C 583.710938 549.847656 580.953125 547.246094 571.199219 547.328125 C 572.171875 547.328125 572.242188 547.175781 573.210938 547.1875 C 569.554688 546.640625 566.046875 547.933594 561.574219 547.035156 C 559.070312 548.34375 555.761719 546.964844 555.03125 548.625 L 563.980469 548.242188 C 558.898438 548.679688 554.128906 550.632812 545.785156 549.648438 C 547.371094 549.152344 548.988281 548.8125 550.640625 548.625 C 548.191406 548.132812 545.925781 548.945312 543.390625 548.441406 C 544.109375 546.765625 554.269531 548.074219 559.714844 546.808594 C 557.097656 546.105469 549.429688 548.019531 552.160156 546.207031 C 548.234375 548.511719 542.546875 545.910156 535.933594 547.609375 L 536.371094 546.613281 L 534.132812 546.976562 L 532.726562 547.148438 C 532.480469 547.171875 532.238281 547.171875 531.992188 547.148438 L 532.457031 546.824219 L 532.65625 546.65625 C 532.738281 546.570312 532.835938 546.515625 532.949219 546.488281 L 534.695312 545.839844 C 534.257812 545.925781 533.835938 545.996094 533.398438 546.050781 L 532.527344 546.050781 C 532.21875 546.097656 531.910156 546.097656 531.597656 546.050781 C 531.132812 545.953125 530.703125 545.773438 530.304688 545.515625 C 530.539062 544.976562 530.574219 544.421875 530.402344 543.855469 C 530.460938 544.5 530.359375 545.121094 530.105469 545.714844 C 530.105469 545.910156 529.753906 546.207031 529.375 546.5 C 528.996094 546.796875 528.6875 547.105469 529.292969 547.359375 L 528.320312 547.5 C 528.097656 546.402344 528.097656 545.304688 528.320312 544.207031 C 528.40625 543.859375 528.542969 543.53125 528.726562 543.226562 C 528.777344 543.15625 528.820312 543.085938 528.855469 543.015625 L 528.980469 542.632812 L 529.25 541.875 C 529.980469 539.835938 530.769531 537.417969 530.542969 530.332031 C 530.683594 532.34375 529.9375 537.867188 529.472656 534.734375 C 529.613281 531.941406 529.984375 529.183594 530.585938 526.453125 C 530.375 516.613281 529.558594 527.957031 528.9375 523.78125 C 530.164062 520.4375 528.445312 518.960938 528.050781 514.65625 L 529.066406 514.65625 C 529.714844 503.410156 526.941406 511.691406 527.730469 501.613281 L 529.136719 505.828125 L 528.769531 500.570312 L 529.925781 501.652344 C 529.226562 497.300781 529.125 492.933594 529.613281 488.550781 C 528.898438 489.859375 527.769531 487.820312 527.730469 482.929688 C 528.335938 479.539062 528.699219 484.824219 528.546875 477.796875 C 529.054688 478.785156 529.351562 479.832031 529.4375 480.9375 C 529.523438 482.046875 529.390625 483.125 529.039062 484.179688 C 529.375 484.488281 529.671875 485.738281 530.007812 486.0625 C 530.699219 482.421875 530.164062 476.910156 530.164062 474.367188 C 530.15625 475.308594 530.078125 476.246094 529.925781 477.179688 L 528.515625 466.984375 C 528.898438 465.382812 529.207031 466.648438 529.503906 467.914062 C 529.390625 465.847656 528.925781 464.425781 528.839844 461.390625 C 529.671875 462.179688 530.53125 461.980469 530.910156 466.28125 L 529.996094 456.582031 C 530.359375 455.9375 530.980469 451.605469 531.289062 452.855469 C 531.78125 447.472656 529.683594 439.65625 530.332031 432.527344 C 530.0625 431.671875 529.917969 430.796875 529.894531 429.898438 C 530.078125 423.195312 531.09375 417.246094 529.894531 409.304688 L 531.585938 404.960938 C 531.246094 398.730469 529.714844 411.0625 529.148438 400.742188 C 528.671875 393.402344 530.417969 398 530.824219 395.429688 C 530.078125 391.773438 528.558594 385.433594 529.753906 378.699219 C 530.050781 380.863281 529.839844 382.605469 529.953125 384.6875 Z M 529.292969 307.957031 C 529.503906 309.445312 530.164062 312.414062 529.558594 313.496094 C 528.390625 311.78125 528.953125 310.460938 529.292969 307.957031 Z M 575.082031 243.792969 C 573.480469 244.078125 571.898438 244.007812 570.328125 243.582031 C 571.917969 243.480469 573.503906 243.539062 575.082031 243.765625 Z M 839.761719 307.199219 C 839.765625 307.144531 839.765625 307.09375 839.761719 307.042969 C 840.113281 303.738281 839.957031 304.863281 839.761719 307.167969 Z M 839.324219 314.085938 C 839.464844 314.773438 839.605469 314.734375 839.746094 314.4375 C 839.46875 313.183594 839.402344 311.917969 839.550781 310.640625 C 839.140625 311.757812 839.0625 312.898438 839.324219 314.058594 Z M 572.4375 555.527344 L 571.03125 555.257812 C 574.125 554.976562 573.28125 555.230469 572.4375 555.527344 Z M 572.4375 555.527344 " fill-opacity="1" fill-rule="nonzero"/><path fill="#ffffff" d="M 561.839844 245.15625 C 561.550781 245.066406 561.339844 244.882812 561.207031 244.609375 C 560.617188 244.765625 560.601562 244.976562 561.839844 245.15625 Z M 561.839844 245.15625 " fill-opacity="1" fill-rule="nonzero"/><path fill="#ffffff" d="M 530.488281 432.429688 L 530.488281 432.667969 C 530.523438 432.765625 530.585938 432.847656 530.671875 432.90625 Z M 530.488281 432.429688 " fill-opacity="1" fill-rule="nonzero"/><path fill="#ffffff" d="M 800.542969 245.746094 C 799.605469 245.6875 798.691406 245.511719 797.796875 245.226562 C 797.726562 245.46875 798.375 245.679688 800.542969 245.746094 Z M 800.542969 245.746094 " fill-opacity="1" fill-rule="nonzero"/><path fill="#ffffff" d="M 841.054688 350.566406 L 840.789062 346.152344 C 840.832031 347.492188 840.71875 348.820312 840.449219 350.132812 C 840.691406 350.035156 841.042969 349.191406 841.054688 350.566406 Z M 841.054688 350.566406 " fill-opacity="1" fill-rule="nonzero"/><path fill="#ffffff" d="M 834.75 388.878906 C 834.878906 389.523438 834.75 390.28125 834.890625 390.886719 L 835.371094 390.703125 C 835.328125 387.949219 834.949219 386.039062 834.75 388.878906 Z M 834.75 388.878906 " fill-opacity="1" fill-rule="nonzero"/><path fill="#ffffff" d="M 837.664062 354.660156 C 836.804688 355.011719 837.101562 357.78125 837.257812 360.871094 C 837.257812 360.691406 837.257812 360.507812 837.257812 360.324219 C 838.46875 361.222656 838.058594 357.933594 837.664062 354.660156 Z M 837.664062 354.660156 " fill-opacity="1" fill-rule="nonzero"/><path fill="#ffffff" d="M 837.285156 361.574219 C 837.285156 362.53125 837.285156 363.5 837.285156 364.386719 C 837.792969 364.796875 837.367188 363.277344 837.285156 361.574219 Z M 837.285156 361.574219 " fill-opacity="1" fill-rule="nonzero"/><path fill="#ffffff" d="M 839.886719 322.789062 C 839.664062 324.195312 840.984375 323.703125 840.632812 324.53125 C 841.730469 326.234375 839.3125 314.773438 839.886719 322.789062 Z M 839.886719 322.789062 " fill-opacity="1" fill-rule="nonzero"/><path fill="#ffffff" d="M 834.851562 357.160156 L 835.90625 356.050781 L 835.046875 354.308594 Z M 834.851562 357.160156 " fill-opacity="1" fill-rule="nonzero"/><path fill="#ffffff" d="M 835.625 332.742188 L 835.328125 337.675781 C 835.511719 337.605469 835.609375 338.222656 835.695312 338.996094 C 835.722656 335.960938 835.960938 332.628906 835.625 332.742188 Z M 835.625 332.742188 " fill-opacity="1" fill-rule="nonzero"/><path fill="#ffffff" d="M 835.695312 339.011719 C 835.636719 340.34375 835.691406 341.667969 835.863281 342.992188 C 835.847656 342.132812 835.820312 340.292969 835.695312 339.011719 Z M 835.695312 339.011719 " fill-opacity="1" fill-rule="nonzero"/><path fill="#ffffff" d="M 834.527344 350.398438 L 834.75 348.9375 L 834.820312 345.449219 Z M 834.527344 350.398438 " fill-opacity="1" fill-rule="nonzero"/><path fill="#ffffff" d="M 835.820312 279.644531 L 835.511719 274.257812 C 835.144531 273.710938 834.921875 275.171875 835.074219 277.183594 C 835.34375 278.433594 835.484375 280.472656 835.820312 279.644531 Z M 835.820312 279.644531 " fill-opacity="1" fill-rule="nonzero"/><path fill="#ffffff" d="M 832.9375 295.949219 C 833.042969 295.105469 833.3125 294.3125 833.738281 293.574219 L 832.429688 293.40625 Z M 832.9375 295.949219 " fill-opacity="1" fill-rule="nonzero"/><path fill="#ffffff" d="M 832.625 280.21875 C 832.261719 279.683594 831.585938 272.390625 831.667969 279.234375 C 832.023438 279.839844 832.332031 285.183594 832.625 280.21875 Z M 832.625 280.21875 " fill-opacity="1" fill-rule="nonzero"/><path fill="#ffffff" d="M 792.195312 242.148438 L 793.574219 242.136719 L 793.378906 239.984375 Z M 792.195312 242.148438 " fill-opacity="1" fill-rule="nonzero"/><path fill="#ffffff" d="M 720.566406 247.292969 C 726.957031 247.816406 722.085938 245.972656 727.871094 246.605469 C 729.375 246.097656 723.140625 246.085938 724.691406 245.648438 C 720.777344 246.183594 718.75 245.875 720.566406 247.292969 Z M 720.566406 247.292969 " fill-opacity="1" fill-rule="nonzero"/><path fill="#ffffff" d="M 724.648438 245.648438 C 725.265625 245.566406 725.914062 245.46875 726.617188 245.328125 C 725.953125 245.386719 725.296875 245.496094 724.648438 245.648438 Z M 724.648438 245.648438 " fill-opacity="1" fill-rule="nonzero"/><g clip-path="url(#id1)"><path fill="#ffffff" d="M 823.507812 556.621094 L 827.617188 557.074219 L 824.972656 556.339844 Z M 823.507812 556.621094 " fill-opacity="1" fill-rule="nonzero"/></g><path fill="#ffffff" d="M 831.402344 555.019531 L 832.375 556.425781 L 834.851562 555.1875 C 833.691406 555.324219 832.542969 555.269531 831.402344 555.019531 Z M 831.402344 555.019531 " fill-opacity="1" fill-rule="nonzero"/><path fill="#ffffff" d="M 531.992188 296.511719 L 531.667969 296.203125 C 531.277344 297.347656 531.132812 298.527344 531.234375 299.734375 Z M 531.992188 296.511719 " fill-opacity="1" fill-rule="nonzero"/><path fill="#ffffff" d="M 531.023438 352.226562 L 531.050781 351.269531 L 529.8125 353.070312 Z M 531.023438 352.226562 " fill-opacity="1" fill-rule="nonzero"/><path fill="#ffffff" d="M 532.597656 399 C 532.597656 397.085938 532.371094 394.78125 532.429688 392.925781 C 532.65625 397.085938 531.0625 399.503906 532.597656 399 Z M 532.597656 399 " fill-opacity="1" fill-rule="nonzero"/><g fill="#ffffff" fill-opacity="1"><g transform="translate(602.388205, 408.829922)"><g><path d="M 4.984375 0 L 4.984375 -9.203125 C 4.984375 -12.609375 5.5 -14.664062 6.488281 -16.09375 C 7.480469 -17.523438 8.910156 -18.367188 10.777344 -18.367188 C 13.710938 -18.367188 15.214844 -15.984375 15.214844 -12.5 L 15.214844 0 L 17.597656 0 L 17.597656 -9.203125 C 17.597656 -12.609375 18.148438 -14.664062 19.101562 -16.128906 C 20.125 -17.707031 21.628906 -18.367188 23.390625 -18.367188 C 26.503906 -18.367188 27.75 -15.875 27.75 -12.5 L 27.75 0 L 30.132812 0 L 30.132812 -13.085938 C 30.132812 -17.816406 28.007812 -20.492188 23.574219 -20.492188 C 20.824219 -20.492188 18.257812 -19.210938 16.972656 -16.277344 C 16.167969 -19.136719 13.820312 -20.492188 10.996094 -20.492188 C 8.066406 -20.492188 5.9375 -18.953125 4.984375 -17.121094 L 4.984375 -20.125 L 2.601562 -20.125 L 2.601562 0 Z M 4.984375 0 "/></g></g></g><g fill="#ffffff" fill-opacity="1"><g transform="translate(634.975667, 408.829922)"><g><path d="M 3.847656 -24.78125 C 4.839844 -24.78125 5.644531 -25.589844 5.644531 -26.578125 C 5.644531 -27.53125 4.839844 -28.339844 3.847656 -28.339844 C 2.859375 -28.339844 2.054688 -27.53125 2.054688 -26.578125 C 2.054688 -25.589844 2.859375 -24.78125 3.847656 -24.78125 Z M 5.023438 0 L 5.023438 -20.125 L 2.640625 -20.125 L 2.640625 0 Z M 5.023438 0 "/></g></g></g><g fill="#ffffff" fill-opacity="1"><g transform="translate(642.636834, 408.829922)"><g><path d="M 10.449219 0.367188 C 15.359375 0.367188 18.074219 -2.015625 18.074219 -5.609375 C 18.074219 -10.007812 14.078125 -10.816406 10.484375 -11.546875 C 7.515625 -12.132812 4.800781 -12.683594 4.800781 -15.140625 C 4.800781 -17.15625 6.597656 -18.367188 9.566406 -18.367188 C 12.574219 -18.367188 14.589844 -16.9375 15.03125 -14.261719 L 17.414062 -14.261719 C 16.789062 -18.035156 13.929688 -20.492188 9.566406 -20.492188 C 5.5 -20.492188 2.417969 -18.511719 2.417969 -14.882812 C 2.417969 -10.960938 6.085938 -10.191406 9.566406 -9.496094 C 12.722656 -8.871094 15.691406 -8.25 15.691406 -5.390625 C 15.691406 -3.042969 13.710938 -1.757812 10.558594 -1.757812 C 6.5625 -1.757812 4.472656 -3.519531 4.070312 -6.34375 L 1.648438 -6.34375 C 2.164062 -2.164062 5.351562 0.367188 10.449219 0.367188 Z M 10.449219 0.367188 "/></g></g></g><g fill="#ffffff" fill-opacity="1"><g transform="translate(662.54121, 408.829922)"><g><path d="M 11.363281 0.367188 C 15.800781 0.367188 19.246094 -2.234375 20.089844 -6.34375 L 17.488281 -6.34375 C 16.898438 -3.628906 14.515625 -1.757812 11.363281 -1.757812 C 7.183594 -1.757812 4.144531 -5.242188 4.144531 -10.15625 C 4.144531 -14.921875 7.183594 -18.367188 11.363281 -18.367188 C 14.296875 -18.367188 16.644531 -16.753906 17.375 -14.261719 L 19.941406 -14.261719 C 19.027344 -18.035156 15.726562 -20.492188 11.363281 -20.492188 C 5.753906 -20.492188 1.757812 -16.058594 1.757812 -10.15625 C 1.757812 -4.070312 5.753906 0.367188 11.363281 0.367188 Z M 11.363281 0.367188 "/></g></g></g><g fill="#ffffff" fill-opacity="1"><g transform="translate(684.205092, 408.829922)"><g><path d="M 5.023438 0 L 5.023438 -7.957031 C 5.023438 -12.574219 5.828125 -15.140625 7.257812 -16.71875 C 8.25 -17.78125 9.566406 -18.367188 11.109375 -18.367188 C 12.757812 -18.367188 14.003906 -17.742188 14.773438 -16.496094 C 15.359375 -15.542969 15.652344 -14.1875 15.652344 -12.464844 L 15.652344 0 L 18.035156 0 L 18.035156 -12.355469 C 18.035156 -13.710938 18.035156 -15.691406 17.046875 -17.414062 C 15.984375 -19.28125 14.113281 -20.492188 11.621094 -20.492188 C 8.796875 -20.492188 6.671875 -19.355469 5.023438 -16.753906 L 5.023438 -27.972656 L 2.640625 -27.972656 L 2.640625 0 Z M 5.023438 0 "/></g></g></g><g fill="#ffffff" fill-opacity="1"><g transform="translate(704.695977, 408.829922)"><g><path d="M 3.847656 -24.78125 C 4.839844 -24.78125 5.644531 -25.589844 5.644531 -26.578125 C 5.644531 -27.53125 4.839844 -28.339844 3.847656 -28.339844 C 2.859375 -28.339844 2.054688 -27.53125 2.054688 -26.578125 C 2.054688 -25.589844 2.859375 -24.78125 3.847656 -24.78125 Z M 5.023438 0 L 5.023438 -20.125 L 2.640625 -20.125 L 2.640625 0 Z M 5.023438 0 "/></g></g></g><g fill="#ffffff" fill-opacity="1"><g transform="translate(712.357144, 408.829922)"><g><path d="M 11.363281 0.367188 C 16.203125 0.367188 19.28125 -2.601562 20.457031 -6.34375 L 17.925781 -6.34375 C 17.011719 -3.8125 14.699219 -1.757812 11.363281 -1.757812 C 8.285156 -1.757812 5.792969 -3.703125 4.691406 -6.855469 C 4.363281 -7.773438 4.179688 -8.613281 4.105469 -9.640625 L 20.894531 -9.640625 C 20.894531 -10.042969 20.894531 -10.484375 20.859375 -10.886719 C 20.382812 -16.496094 16.863281 -20.492188 11.328125 -20.492188 C 5.390625 -20.492188 1.757812 -15.617188 1.757812 -10.042969 C 1.757812 -4.105469 5.753906 0.367188 11.363281 0.367188 Z M 4.253906 -11.585938 C 4.363281 -12.390625 4.621094 -13.417969 4.984375 -14.222656 C 6.121094 -16.828125 8.433594 -18.367188 11.363281 -18.367188 C 14.261719 -18.367188 16.753906 -16.789062 17.925781 -14.078125 C 18.292969 -13.234375 18.441406 -12.5 18.585938 -11.585938 Z M 4.253906 -11.585938 "/></g></g></g><g fill="#ffffff" fill-opacity="1"><g transform="translate(734.97409, 408.829922)"><g><path d="M 6.707031 0 L 6.707031 -18 L 11.804688 -18 L 11.804688 -20.125 L 6.707031 -20.125 L 6.707031 -22.65625 C 6.707031 -25.296875 8.027344 -25.84375 9.898438 -25.84375 L 11.804688 -25.84375 L 11.804688 -27.972656 L 9.386719 -27.972656 C 6.011719 -27.972656 4.324219 -26.066406 4.324219 -22.398438 L 4.324219 -20.125 L 0.953125 -20.125 L 0.953125 -18 L 4.324219 -18 L 4.324219 0 Z M 6.707031 0 "/></g></g></g><g fill="#ffffff" fill-opacity="1"><g transform="translate(747.536636, 408.829922)"><g/></g></g><g fill="#ffffff" fill-opacity="1"><g transform="translate(606.771589, 482.97662)"><g><path d="M 22.070312 0.558594 C 31.179688 0.558594 37.210938 -4.414062 38.609375 -12.070312 L 34.53125 -12.070312 C 33.355469 -6.203125 28.609375 -2.90625 21.957031 -2.90625 C 11.734375 -2.90625 6.648438 -10.894531 6.648438 -21.34375 C 6.648438 -31.738281 11.734375 -39.726562 21.957031 -39.726562 C 28.609375 -39.726562 33.414062 -36.429688 34.53125 -31.347656 L 38.609375 -31.347656 C 37.269531 -38.273438 31.179688 -43.191406 22.070312 -43.191406 C 8.882812 -43.191406 2.792969 -32.910156 2.792969 -21.34375 C 2.792969 -9.777344 8.882812 0.558594 22.070312 0.558594 Z M 22.070312 0.558594 "/></g></g></g><g fill="#ffffff" fill-opacity="1"><g transform="translate(647.728012, 482.97662)"><g><path d="M 4.859375 0 L 9.164062 -11.511719 L 29.277344 -11.511719 L 33.582031 0 L 37.546875 0 L 21.457031 -42.632812 L 16.984375 -42.632812 L 0.894531 0 Z M 19.222656 -38.664062 L 28.050781 -14.972656 L 10.394531 -14.972656 Z M 19.222656 -38.664062 "/></g></g></g><g fill="#ffffff" fill-opacity="1"><g transform="translate(686.170053, 482.97662)"><g><path d="M 8.269531 0 L 8.269531 -19.722656 L 28.71875 -19.722656 L 28.71875 -23.132812 L 8.269531 -23.132812 L 8.269531 -39.167969 L 31.570312 -39.167969 L 31.570312 -42.632812 L 4.414062 -42.632812 L 4.414062 0 Z M 8.269531 0 "/></g></g></g><g fill="#ffffff" fill-opacity="1"><g transform="translate(719.359841, 482.97662)"><g><path d="M 31.570312 0 L 31.570312 -3.464844 L 8.269531 -3.464844 L 8.269531 -19.667969 L 28.71875 -19.667969 L 28.71875 -23.132812 L 8.269531 -23.132812 L 8.269531 -39.167969 L 31.570312 -39.167969 L 31.570312 -42.632812 L 4.414062 -42.632812 L 4.414062 0 Z M 31.570312 0 "/></g></g></g><g fill="#ffffff" fill-opacity="1"><g transform="translate(640.33351, 544.460153)"><g><path d="M 10.171875 0 L 10.171875 -1.117188 L 2.664062 -1.117188 L 2.664062 -6.335938 L 9.253906 -6.335938 L 9.253906 -7.453125 L 2.664062 -7.453125 L 2.664062 -12.617188 L 10.171875 -12.617188 L 10.171875 -13.734375 L 1.421875 -13.734375 L 1.421875 0 Z M 10.171875 0 "/></g></g></g><g fill="#ffffff" fill-opacity="1"><g transform="translate(651.295473, 544.460153)"><g><path d="M 5.128906 0.179688 C 7.542969 0.179688 8.875 -0.988281 8.875 -2.753906 C 8.875 -4.914062 6.910156 -5.308594 5.148438 -5.671875 C 3.691406 -5.957031 2.359375 -6.226562 2.359375 -7.433594 C 2.359375 -8.425781 3.238281 -9.019531 4.699219 -9.019531 C 6.175781 -9.019531 7.164062 -8.316406 7.378906 -7.003906 L 8.550781 -7.003906 C 8.242188 -8.855469 6.839844 -10.0625 4.699219 -10.0625 C 2.699219 -10.0625 1.1875 -9.089844 1.1875 -7.308594 C 1.1875 -5.382812 2.988281 -5.003906 4.699219 -4.660156 C 6.246094 -4.355469 7.703125 -4.050781 7.703125 -2.644531 C 7.703125 -1.492188 6.730469 -0.863281 5.183594 -0.863281 C 3.222656 -0.863281 2.195312 -1.726562 1.996094 -3.113281 L 0.808594 -3.113281 C 1.0625 -1.0625 2.628906 0.179688 5.128906 0.179688 Z M 5.128906 0.179688 "/></g></g></g><g fill="#ffffff" fill-opacity="1"><g transform="translate(661.069448, 544.460153)"><g><path d="M 5.5625 0 L 5.5625 -1.042969 L 4.570312 -1.042969 C 3.367188 -1.042969 3.257812 -1.585938 3.257812 -2.71875 L 3.257812 -8.839844 L 5.578125 -8.839844 L 5.578125 -9.882812 L 3.257812 -9.882812 L 3.257812 -13.734375 L 2.089844 -13.734375 L 2.089844 -9.882812 L 0.484375 -9.882812 L 0.484375 -8.839844 L 2.089844 -8.839844 L 2.089844 -2.484375 C 2.089844 -0.503906 2.808594 0 4.300781 0 Z M 5.5625 0 "/></g></g></g><g fill="#ffffff" fill-opacity="1"><g transform="translate(667.297425, 544.460153)"><g><path d="M 2.554688 0.179688 C 3.023438 0.179688 3.421875 -0.234375 3.421875 -0.738281 C 3.421875 -1.207031 3.023438 -1.621094 2.554688 -1.621094 C 2.050781 -1.621094 1.621094 -1.222656 1.621094 -0.738281 C 1.621094 -0.234375 2.035156 0.179688 2.554688 0.179688 Z M 2.554688 0.179688 "/></g></g></g><g fill="#ffffff" fill-opacity="1"><g transform="translate(672.337415, 544.460153)"><g/></g></g><g fill="#ffffff" fill-opacity="1"><g transform="translate(677.377404, 544.460153)"><g><path d="M 10.566406 0 L 10.566406 -1.117188 L 2.71875 -1.117188 L 6.191406 -3.976562 C 8.351562 -5.761719 9.988281 -7.542969 9.988281 -9.917969 C 9.988281 -12.3125 8.242188 -13.914062 5.867188 -13.914062 C 3.203125 -13.914062 1.492188 -12.222656 1.421875 -9.253906 L 2.664062 -9.253906 C 2.753906 -11.554688 3.816406 -12.796875 5.886719 -12.796875 C 7.632812 -12.796875 8.746094 -11.628906 8.746094 -9.898438 C 8.746094 -7.9375 7.433594 -6.445312 5.4375 -4.824219 L 1.007812 -1.222656 L 1.007812 0 Z M 10.566406 0 "/></g></g></g><g fill="#ffffff" fill-opacity="1"><g transform="translate(688.933373, 544.460153)"><g><path d="M 5.867188 0.179688 C 8.695312 0.179688 10.492188 -2.160156 10.492188 -6.894531 C 10.492188 -11.59375 8.746094 -13.914062 5.867188 -13.914062 C 2.96875 -13.914062 1.222656 -11.59375 1.222656 -6.894531 C 1.222656 -2.160156 3.023438 0.179688 5.867188 0.179688 Z M 5.867188 -0.9375 C 3.78125 -0.9375 2.464844 -2.503906 2.464844 -6.875 C 2.464844 -11.214844 3.742188 -12.796875 5.867188 -12.796875 C 7.972656 -12.796875 9.253906 -11.214844 9.253906 -6.875 C 9.253906 -2.503906 7.9375 -0.9375 5.867188 -0.9375 Z M 5.867188 -0.9375 "/></g></g></g><g fill="#ffffff" fill-opacity="1"><g transform="translate(700.651332, 544.460153)"><g><path d="M 10.566406 0 L 10.566406 -1.117188 L 2.71875 -1.117188 L 6.191406 -3.976562 C 8.351562 -5.761719 9.988281 -7.542969 9.988281 -9.917969 C 9.988281 -12.3125 8.242188 -13.914062 5.867188 -13.914062 C 3.203125 -13.914062 1.492188 -12.222656 1.421875 -9.253906 L 2.664062 -9.253906 C 2.753906 -11.554688 3.816406 -12.796875 5.886719 -12.796875 C 7.632812 -12.796875 8.746094 -11.628906 8.746094 -9.898438 C 8.746094 -7.9375 7.433594 -6.445312 5.4375 -4.824219 L 1.007812 -1.222656 L 1.007812 0 Z M 10.566406 0 "/></g></g></g><g fill="#ffffff" fill-opacity="1"><g transform="translate(712.207301, 544.460153)"><g><path d="M 6.191406 0 L 6.191406 -13.734375 L 4.984375 -13.734375 C 4.195312 -12.582031 2.824219 -11.503906 0.738281 -11.105469 L 0.738281 -9.917969 C 2.464844 -10.207031 4.121094 -11.179688 4.949219 -12.167969 L 4.949219 0 Z M 6.191406 0 "/></g></g></g></svg>